# xmcd
#
# Track frame offsets: 
#        150
#        17706
#        38951
#        55438
#        87458
#        106098
#        123455
#        151855
#        170703
#        194580
#        205714
#        229567
#        242215
#
# Disc length: 3403 seconds
#
# Revision: 2
# Processed by: cddbd v1.5.2PL0 Copyright (c) Steve Scherf et al.
# Submitted via: ExactAudioCopy v1.3
#
DISCID=ad0d490d
DTITLE=Van Morrison - Keep Me Singing
DYEAR=2016
DGENRE=Blues
TTITLE0=Let It Rhyme
TTITLE1=Every Time I See A River
TTITLE2=Keep Me Singing
TTITLE3=Out In The Cold Again
TTITLE4=Memory Lane
TTITLE5=The Pen Is Mightier Than The Sword
TTITLE6=Holy Guardian Angel
TTITLE7=Share Your Love With Me
TTITLE8=In Tiburon
TTITLE9=Look Beyond The Hill
TTITLE10=Going Down To Bangor
TTITLE11=Too Late
TTITLE12=Caledonia Swing
EXTD=
EXTT0=
EXTT1=
EXTT2=
EXTT3=
EXTT4=
EXTT5=
EXTT6=
EXTT7=
EXTT8=
EXTT9=
EXTT10=
EXTT11=
EXTT12=
PLAYORDER=
